<svg width="181" height="50" viewBox="0 0 181 50" fill="none" xmlns="http://www.w3.org/2000/svg">
<g clip-path="url(#clip0_17_27)">
<rect x="4" y="5" width="40" height="40" rx="10" fill="#3B82F6"/>
<g style="mix-blend-mode:hard-light">
<path d="M24.4181 19.5206C24.4536 18.6328 24.1944 17.9474 23.6404 17.4645C23.0935 16.9815 22.2661 16.7401 21.1582 16.7401C20.4053 16.7401 19.7519 16.8466 19.1979 17.0597C18.644 17.2656 18.2001 17.5533 17.8663 17.9226C17.5396 18.2848 17.3371 18.7038 17.259 19.1797C17.1809 19.5703 17.2057 19.9112 17.3336 20.2024C17.4685 20.4936 17.678 20.7457 17.9621 20.9588C18.2533 21.1648 18.5978 21.3459 18.9955 21.5021C19.3932 21.6513 19.8158 21.7791 20.2633 21.8857L22.1383 22.3544C23.0545 22.5675 23.8783 22.8516 24.6099 23.2067C25.3485 23.5618 25.9664 23.9986 26.4636 24.517C26.9678 25.0355 27.3229 25.6463 27.5289 26.3494C27.7349 27.0526 27.7633 27.8587 27.6141 28.7678C27.3869 30.103 26.8577 31.2607 26.0268 32.2408C25.1958 33.2138 24.1056 33.9702 22.7562 34.5099C21.4067 35.0426 19.8442 35.3089 18.0687 35.3089C16.3073 35.3089 14.8194 35.0391 13.6049 34.4993C12.3904 33.9595 11.5062 33.1605 10.9522 32.1023C10.4053 31.0369 10.242 29.7195 10.4621 28.1499H14.9259C14.8478 28.8814 14.9543 29.4922 15.2455 29.9822C15.5438 30.4652 15.9877 30.831 16.5772 31.0795C17.1667 31.321 17.8592 31.4418 18.6546 31.4418C19.443 31.4418 20.1425 31.3281 20.7533 31.1009C21.3712 30.8736 21.8719 30.5575 22.2555 30.1527C22.639 29.7479 22.8734 29.2827 22.9586 28.7571C23.0438 28.267 22.9692 27.8551 22.7349 27.5213C22.5005 27.1875 22.1241 26.9034 21.6056 26.669C21.0942 26.4276 20.4586 26.2145 19.6986 26.0298L17.4188 25.4332C15.6574 24.9858 14.3258 24.2862 13.4238 23.3345C12.5218 22.3828 12.1986 21.1009 12.4543 19.4886C12.6816 18.1676 13.232 17.0135 14.1056 16.0263C14.9863 15.032 16.0942 14.2614 17.4295 13.7145C18.7718 13.1605 20.2384 12.8835 21.8293 12.8835C23.4486 12.8835 24.8158 13.1641 25.9309 13.7251C27.0459 14.2791 27.8592 15.0533 28.3705 16.0476C28.8819 17.0419 29.0381 18.1996 28.8393 19.5206H24.4181ZM29.5536 35L32.0081 20.2727H36.0926L33.6381 35H29.5536ZM34.4723 18.3551C33.865 18.3551 33.3632 18.1538 32.9669 17.7511C32.577 17.342 32.4172 16.8562 32.4875 16.2937C32.5578 15.7184 32.8327 15.2326 33.3121 14.8363C33.7915 14.4336 34.3348 14.2322 34.9421 14.2322C35.5493 14.2322 36.0447 14.4336 36.4282 14.8363C36.8117 15.2326 36.9715 15.7184 36.9076 16.2937C36.8437 16.8562 36.572 17.342 36.0926 17.7511C35.6196 18.1538 35.0795 18.3551 34.4723 18.3551Z" fill="white"/>
</g>
<circle cx="34.5" cy="15.5" r="3.5" fill="white"/>
<rect x="35" y="17.7279" width="2.44358" height="9.02269" rx="1.22179" transform="rotate(-45 35 17.7279)" fill="white"/>
<circle cx="34.5" cy="15.5" r="2.5" fill="#3B82F6"/>
<circle cx="34" cy="16" r="1" fill="white"/>
<path d="M55.8805 23.1499C55.8282 22.6508 55.6129 22.2644 55.2346 21.9908C54.8562 21.7131 54.3471 21.5742 53.7072 21.5742C53.2725 21.5742 52.9023 21.6366 52.5964 21.7614C52.2905 21.8861 52.0571 22.0572 51.8961 22.2745C51.7351 22.4918 51.6547 22.7393 51.6547 23.017C51.6506 23.2505 51.7009 23.4537 51.8056 23.6268C51.9102 23.7958 52.0571 23.9427 52.2463 24.0675C52.4354 24.1882 52.6507 24.2928 52.8922 24.3814C53.1337 24.4659 53.3852 24.5384 53.6468 24.5987L54.7697 24.8704C55.2929 24.9871 55.7759 25.1441 56.2186 25.3413C56.6653 25.5385 57.0557 25.784 57.3897 26.0778C57.7238 26.3675 57.9854 26.7116 58.1745 27.1101C58.3637 27.5085 58.4583 27.9673 58.4583 28.4865C58.4583 29.2311 58.2691 29.881 57.8908 30.4364C57.5125 30.9878 56.9672 31.4164 56.2548 31.7223C55.5465 32.0241 54.6912 32.1751 53.6891 32.1751C52.699 32.1751 51.8398 32.0241 51.1113 31.7223C50.3829 31.4205 49.8134 30.9737 49.4029 30.3821C48.9964 29.7865 48.7811 29.052 48.7569 28.1786H51.2019C51.2301 28.5972 51.3528 28.9473 51.5701 29.229C51.7875 29.5067 52.0752 29.716 52.4334 29.8569C52.7956 29.9937 53.2061 30.0621 53.665 30.0621C54.1197 30.0621 54.5162 29.9957 54.8542 29.8629C55.1923 29.7301 55.4559 29.545 55.6451 29.3075C55.8342 29.0661 55.9288 28.7884 55.9288 28.4744C55.9288 28.1847 55.8443 27.9432 55.6752 27.75C55.5062 27.5528 55.2627 27.3878 54.9448 27.255C54.6268 27.1181 54.2445 26.9934 53.7978 26.8807L52.4334 26.5426C51.3991 26.285 50.5821 25.8886 49.9824 25.3533C49.3828 24.814 49.0829 24.0916 49.0829 23.1861C49.0829 22.4415 49.2842 21.7915 49.6866 21.2362C50.0891 20.6767 50.6404 20.2421 51.3407 19.9322C52.041 19.6223 52.8379 19.4673 53.7314 19.4673C54.6369 19.4673 55.4297 19.6243 56.1099 19.9382C56.7901 20.2481 57.3213 20.6808 57.7037 21.2362C58.086 21.7875 58.2812 22.4254 58.2892 23.1499H55.8805ZM64.3669 32.1811C63.4211 32.1811 62.6102 31.9799 61.934 31.5774C61.2579 31.1709 60.7387 30.6075 60.3765 29.8871C60.0143 29.1667 59.8332 28.3376 59.8332 27.3999C59.8332 26.4541 60.0163 25.621 60.3825 24.9006C60.7528 24.1802 61.274 23.6187 61.9461 23.2163C62.6222 22.8098 63.4252 22.6065 64.3548 22.6065C65.1477 22.6065 65.844 22.7514 66.4436 23.0412C67.0473 23.3269 67.5242 23.7334 67.8744 24.2607C68.2245 24.7839 68.4197 25.3956 68.46 26.0959H66.1237C66.0512 25.6411 65.8661 25.2688 65.5683 24.979C65.2704 24.6893 64.878 24.5444 64.3911 24.5444C63.9806 24.5444 63.6204 24.6551 63.3105 24.8764C63.0046 25.0978 62.7651 25.4197 62.5921 25.8423C62.423 26.2609 62.3385 26.768 62.3385 27.3636C62.3385 27.9673 62.423 28.4825 62.5921 28.9091C62.7611 29.3317 62.9986 29.6557 63.3044 29.881C63.6143 30.1024 63.9765 30.2131 64.3911 30.2131C64.6929 30.2131 64.9646 30.1527 65.2061 30.032C65.4475 29.9112 65.6468 29.7362 65.8037 29.5067C65.9647 29.2733 66.0713 28.9916 66.1237 28.6616H68.46C68.4157 29.3578 68.2225 29.9716 67.8804 30.5028C67.5423 31.0301 67.0755 31.4426 66.4798 31.7404C65.8842 32.0342 65.1799 32.1811 64.3669 32.1811ZM70.1639 32V22.7273H72.5545V24.3271H72.6511C72.8201 23.7636 73.1039 23.335 73.5023 23.0412C73.9048 22.7434 74.3676 22.5945 74.8908 22.5945C75.0196 22.5945 75.1584 22.6025 75.3074 22.6186C75.4563 22.6307 75.585 22.6488 75.6937 22.6729V24.8885C75.581 24.8523 75.42 24.8201 75.2108 24.7919C75.0015 24.7637 74.8063 24.7496 74.6252 24.7496C74.2428 24.7496 73.9007 24.8321 73.5989 24.9972C73.2971 25.1622 73.0596 25.3916 72.8865 25.6854C72.7135 25.9792 72.627 26.3172 72.627 26.6996V32H70.1639ZM77.0535 32V22.7273H79.5166V32H77.0535ZM78.2911 21.4957C77.9168 21.4957 77.5969 21.373 77.3312 21.1275C77.0656 20.878 76.9328 20.5781 76.9328 20.228C76.9328 19.8778 77.0656 19.58 77.3312 19.3345C77.5969 19.085 77.9168 18.9602 78.2911 18.9602C78.6654 18.9602 78.9833 19.085 79.2449 19.3345C79.5106 19.58 79.6434 19.8778 79.6434 20.228C79.6434 20.5781 79.5106 20.878 79.2449 21.1275C78.9833 21.373 78.6654 21.4957 78.2911 21.4957ZM81.6959 32V19.6364H84.159V24.2788H84.2435C84.3562 24.0333 84.5172 23.7817 84.7265 23.5241C84.9398 23.2666 85.2215 23.0492 85.5716 22.8722C85.9218 22.6951 86.3585 22.6065 86.8817 22.6065C87.5699 22.6065 88.1997 22.7856 88.7712 23.1438C89.3467 23.498 89.8055 24.0292 90.1476 24.7376C90.4897 25.4419 90.6608 26.3213 90.6608 27.3757C90.6608 28.406 90.4938 29.2773 90.1597 29.9897C89.8257 30.698 89.3729 31.2353 88.8014 31.6016C88.2299 31.9678 87.59 32.1509 86.8817 32.1509C86.3746 32.1509 85.9459 32.0684 85.5958 31.9034C85.2457 31.7344 84.9619 31.5251 84.7446 31.2756C84.5273 31.022 84.3602 30.7705 84.2435 30.521H84.1228V32H81.6959ZM84.1107 27.3636C84.1107 27.9271 84.1892 28.4201 84.3461 28.8427C84.5031 29.2612 84.7305 29.5893 85.0283 29.8267C85.3302 30.0601 85.6944 30.1768 86.121 30.1768C86.5597 30.1768 86.9279 30.0581 87.2258 29.8207C87.5236 29.5792 87.749 29.2472 87.9019 28.8246C88.0589 28.402 88.1373 27.915 88.1373 27.3636C88.1373 26.8163 88.0609 26.3353 87.9079 25.9208C87.755 25.5022 87.5276 25.1763 87.2258 24.9428C86.9279 24.7054 86.5597 24.5866 86.121 24.5866C85.6904 24.5866 85.3241 24.7013 85.0223 24.9308C84.7245 25.1561 84.4971 25.4781 84.3401 25.8967C84.1872 26.3112 84.1107 26.8002 84.1107 27.3636ZM92.4703 32V19.6364H94.9334V24.2788H95.0179C95.1306 24.0333 95.2916 23.7817 95.5009 23.5241C95.7142 23.2666 95.9959 23.0492 96.3461 22.8722C96.6962 22.6951 97.1329 22.6065 97.6561 22.6065C98.3443 22.6065 98.9741 22.7856 99.5456 23.1438C100.121 23.498 100.58 24.0292 100.922 24.7376C101.264 25.4419 101.435 26.3213 101.435 27.3757C101.435 28.406 101.268 29.2773 100.934 29.9897C100.6 30.698 100.147 31.2353 99.5758 31.6016C99.0043 31.9678 98.3644 32.1509 97.6561 32.1509C97.149 32.1509 96.7203 32.0684 96.3702 31.9034C96.0201 31.7344 95.7363 31.5251 95.519 31.2756C95.3017 31.022 95.1346 30.7705 95.0179 30.521H94.8972V32H92.4703ZM94.8851 27.3636C94.8851 27.9271 94.9636 28.4201 95.1206 28.8427C95.2775 29.2612 95.5049 29.5893 95.8027 29.8267C96.1046 30.0601 96.4688 30.1768 96.8954 30.1768C97.3341 30.1768 97.7024 30.0581 98.0002 29.8207C98.298 29.5792 98.5234 29.2472 98.6763 28.8246C98.8333 28.402 98.9118 27.915 98.9118 27.3636C98.9118 26.8163 98.8353 26.3353 98.6824 25.9208C98.5294 25.5022 98.302 25.1763 98.0002 24.9428C97.7024 24.7054 97.3341 24.5866 96.8954 24.5866C96.4648 24.5866 96.0985 24.7013 95.7967 24.9308C95.4989 25.1561 95.2715 25.4781 95.1145 25.8967C94.9616 26.3112 94.8851 26.8002 94.8851 27.3636ZM105.647 19.6364V32H103.184V19.6364H105.647ZM111.956 32.1811C111.01 32.1811 110.195 31.9879 109.511 31.6016C108.827 31.2112 108.3 30.6598 107.929 29.9474C107.563 29.2311 107.38 28.3859 107.38 27.4119C107.38 26.4581 107.565 25.621 107.935 24.9006C108.306 24.1761 108.825 23.6127 109.493 23.2102C110.161 22.8078 110.946 22.6065 111.847 22.6065C112.451 22.6065 113.015 22.7031 113.538 22.8963C114.061 23.0855 114.52 23.3752 114.914 23.7656C115.309 24.152 115.616 24.641 115.838 25.2326C116.063 25.8202 116.176 26.5124 116.176 27.3093V28.0036H108.406V26.446H113.846C113.842 26.0637 113.757 25.7236 113.592 25.4258C113.427 25.128 113.198 24.8945 112.904 24.7255C112.614 24.5524 112.276 24.4659 111.89 24.4659C111.483 24.4659 111.125 24.5605 110.815 24.7496C110.505 24.9388 110.264 25.1903 110.091 25.5043C109.918 25.8182 109.827 26.1643 109.819 26.5426V27.9975C109.819 28.4764 109.908 28.891 110.085 29.2411C110.266 29.5872 110.519 29.8549 110.845 30.044C111.171 30.2292 111.554 30.3217 111.992 30.3217C112.29 30.3217 112.56 30.2795 112.801 30.195C113.043 30.1104 113.25 29.9857 113.423 29.8207C113.6 29.6557 113.733 29.4544 113.821 29.217L116.109 29.392C115.989 29.9555 115.743 30.4465 115.373 30.8651C115.007 31.2796 114.534 31.6036 113.954 31.837C113.375 32.0664 112.709 32.1811 111.956 32.1811ZM120.482 19.6364V32H117.97V19.6364H120.482ZM125.104 26.6211V32H122.641V22.7273H124.99V24.3452H125.098C125.308 23.8139 125.652 23.3913 126.131 23.0774C126.61 22.7635 127.193 22.6065 127.881 22.6065C128.525 22.6065 129.087 22.7474 129.566 23.0291C130.045 23.3068 130.415 23.7073 130.677 24.2305C130.942 24.7496 131.075 25.3714 131.075 26.0959V32H128.606V26.5185C128.61 25.9389 128.461 25.4862 128.159 25.1602C127.861 24.8301 127.447 24.6651 126.916 24.6651C126.561 24.6651 126.247 24.7436 125.974 24.9006C125.7 25.0535 125.487 25.2749 125.334 25.5646C125.185 25.8544 125.109 26.2066 125.104 26.6211ZM140.757 25.3171L138.499 25.4801C138.455 25.2829 138.366 25.1018 138.233 24.9368C138.1 24.7678 137.923 24.6329 137.702 24.5323C137.481 24.4317 137.215 24.3814 136.905 24.3814C136.491 24.3814 136.143 24.4699 135.861 24.647C135.579 24.8201 135.438 25.0495 135.438 25.3352C135.438 25.5687 135.529 25.7638 135.71 25.9208C135.895 26.0778 136.209 26.2045 136.652 26.3011L138.306 26.6392C139.199 26.8243 139.865 27.1222 140.304 27.5327C140.743 27.9432 140.964 28.4825 140.968 29.1506C140.964 29.7543 140.787 30.2835 140.437 30.7383C140.087 31.1931 139.606 31.5472 138.994 31.8008C138.382 32.0543 137.678 32.1811 136.881 32.1811C135.678 32.1811 134.718 31.9296 134.001 31.4265C133.285 30.9234 132.864 30.2332 132.74 29.3558L135.154 29.2049C135.239 29.5913 135.43 29.8851 135.728 30.0863C136.026 30.2835 136.412 30.3821 136.887 30.3821C137.354 30.3821 137.73 30.2895 138.016 30.1044C138.306 29.9193 138.451 29.6838 138.451 29.3981C138.451 29.1526 138.352 28.9513 138.155 28.7944C137.958 28.6374 137.654 28.5167 137.243 28.4322L135.65 28.1122C134.748 27.9311 134.078 27.6192 133.639 27.1765C133.201 26.7298 132.983 26.1623 132.987 25.4741C132.983 24.8825 133.142 24.3733 133.464 23.9467C133.79 23.5201 134.243 23.1901 134.822 22.9567C135.406 22.7232 136.088 22.6065 136.869 22.6065C138.016 22.6065 138.92 22.85 139.58 23.337C140.244 23.82 140.636 24.48 140.757 25.3171ZM142.646 35.4773V22.7273H145.073V24.2788H145.188C145.305 24.0333 145.468 23.7817 145.677 23.5241C145.89 23.2666 146.172 23.0492 146.522 22.8722C146.872 22.6951 147.309 22.6065 147.832 22.6065C148.52 22.6065 149.15 22.7856 149.722 23.1438C150.297 23.498 150.754 24.0292 151.092 24.7376C151.434 25.4419 151.605 26.3213 151.605 27.3757C151.605 28.406 151.438 29.2773 151.104 29.9897C150.774 30.698 150.323 31.2353 149.752 31.6016C149.18 31.9678 148.54 32.1509 147.832 32.1509C147.321 32.1509 146.89 32.0684 146.54 31.9034C146.194 31.7344 145.912 31.5251 145.695 31.2756C145.478 31.022 145.309 30.7705 145.188 30.521H145.109V35.4773H142.646ZM145.061 27.3636C145.061 27.9271 145.14 28.4201 145.297 28.8427C145.453 29.2612 145.681 29.5893 145.979 29.8267C146.281 30.0601 146.645 30.1768 147.071 30.1768C147.506 30.1768 147.872 30.0581 148.17 29.8207C148.472 29.5792 148.699 29.2472 148.852 28.8246C149.009 28.402 149.088 27.915 149.088 27.3636C149.088 26.8163 149.011 26.3353 148.858 25.9208C148.705 25.5022 148.478 25.1763 148.176 24.9428C147.878 24.7054 147.51 24.5866 147.071 24.5866C146.641 24.5866 146.275 24.7013 145.973 24.9308C145.675 25.1561 145.447 25.4781 145.29 25.8967C145.138 26.3112 145.061 26.8002 145.061 27.3636ZM157.544 32.1811C156.598 32.1811 155.783 31.9879 155.099 31.6016C154.415 31.2112 153.888 30.6598 153.517 29.9474C153.151 29.2311 152.968 28.3859 152.968 27.4119C152.968 26.4581 153.153 25.621 153.523 24.9006C153.894 24.1761 154.413 23.6127 155.081 23.2102C155.749 22.8078 156.534 22.6065 157.435 22.6065C158.039 22.6065 158.602 22.7031 159.126 22.8963C159.649 23.0855 160.108 23.3752 160.502 23.7656C160.896 24.152 161.204 24.641 161.426 25.2326C161.651 25.8202 161.764 26.5124 161.764 27.3093V28.0036H153.994V26.446H159.434C159.429 26.0637 159.345 25.7236 159.18 25.4258C159.015 25.128 158.786 24.8945 158.492 24.7255C158.202 24.5524 157.864 24.4659 157.478 24.4659C157.071 24.4659 156.713 24.5605 156.403 24.7496C156.093 24.9388 155.852 25.1903 155.679 25.5043C155.505 25.8182 155.415 26.1643 155.407 26.5426V27.9975C155.407 28.4764 155.495 28.891 155.672 29.2411C155.854 29.5872 156.107 29.8549 156.433 30.044C156.759 30.2292 157.141 30.3217 157.58 30.3217C157.878 30.3217 158.148 30.2795 158.389 30.195C158.631 30.1104 158.838 29.9857 159.011 29.8207C159.188 29.6557 159.321 29.4544 159.409 29.217L161.697 29.392C161.577 29.9555 161.331 30.4465 160.961 30.8651C160.595 31.2796 160.122 31.6036 159.542 31.837C158.963 32.0664 158.297 32.1811 157.544 32.1811ZM167.645 32.1811C166.699 32.1811 165.888 31.9799 165.212 31.5774C164.536 31.1709 164.017 30.6075 163.655 29.8871C163.293 29.1667 163.112 28.3376 163.112 27.3999C163.112 26.4541 163.295 25.621 163.661 24.9006C164.031 24.1802 164.552 23.6187 165.224 23.2163C165.901 22.8098 166.703 22.6065 167.633 22.6065C168.426 22.6065 169.122 22.7514 169.722 23.0412C170.326 23.3269 170.803 23.7334 171.153 24.2607C171.503 24.7839 171.698 25.3956 171.738 26.0959H169.402C169.33 25.6411 169.144 25.2688 168.847 24.979C168.549 24.6893 168.156 24.5444 167.669 24.5444C167.259 24.5444 166.899 24.6551 166.589 24.8764C166.283 25.0978 166.043 25.4197 165.87 25.8423C165.701 26.2609 165.617 26.768 165.617 27.3636C165.617 27.9673 165.701 28.4825 165.87 28.9091C166.039 29.3317 166.277 29.6557 166.583 29.881C166.893 30.1024 167.255 30.2131 167.669 30.2131C167.971 30.2131 168.243 30.1527 168.484 30.032C168.726 29.9112 168.925 29.7362 169.082 29.5067C169.243 29.2733 169.35 28.9916 169.402 28.6616H171.738C171.694 29.3578 171.501 29.9716 171.159 30.5028C170.821 31.0301 170.354 31.4426 169.758 31.7404C169.163 32.0342 168.458 32.1811 167.645 32.1811ZM178.29 22.7273V24.5927H172.772V22.7273H178.29ZM174.052 20.5057H176.521V29.1687C176.521 29.4182 176.559 29.6134 176.636 29.7543C176.716 29.8911 176.823 29.9857 176.956 30.038C177.093 30.0903 177.247 30.1165 177.421 30.1165C177.549 30.1165 177.672 30.1064 177.789 30.0863C177.91 30.0662 178 30.0481 178.06 30.032L178.459 31.8913C178.334 31.9316 178.157 31.9779 177.928 32.0302C177.698 32.0825 177.421 32.1147 177.095 32.1268C176.495 32.1509 175.966 32.0684 175.507 31.8793C175.048 31.6901 174.69 31.3983 174.432 31.0039C174.175 30.6095 174.048 30.1125 174.052 29.5128V20.5057Z" fill="black"/>
</g>
<defs>
<clipPath id="clip0_17_27">
<rect width="181" height="50" fill="white"/>
</clipPath>
</defs>
</svg>
